# xmcd CD database file
#
# Track frame offsets:
#	150
#	17920
#	35530
#	61547
#	72307
#	92342
#	109867
#	123412
#	141805
#	166257
#	200940
#
# Disc length: 3286 seconds
#
# Revision: 0
# Processed by: cddbd v1.5.2PL0 Copyright (c) Steve Scherf et al.
# Submitted via: CDex 1.51
#
DISCID=950cd40b
DTITLE=Rockin' Jake Band - Let's Go Get 'em
DYEAR=1996
DGENRE=Blues
TTITLE0=Secret Name
TTITLE1=Sophisticated Cissy
TTITLE2=Attracted To The Light
TTITLE3=Everything I Do Gonh be Funky (From Now On)
TTITLE4=Paradise Ride
TTITLE5=Show Me Your Pretties
TTITLE6=Bayou Sunset
TTITLE7=Me and My Brothers
TTITLE8=New Lover
TTITLE9=Big Gerth An God HimSelf 
TTITLE10=Them So Bad
EXTD=YEAR: 1996
EXTT0=
EXTT1=
EXTT2=
EXTT3=
EXTT4=
EXTT5=
EXTT6=
EXTT7=
EXTT8=
EXTT9=
EXTT10=
PLAYORDER=
